:FULLY-SPECIFIED
:FORCE-ALL-JOINTS-BE-3DOF
:DEGREES
34
root 5.97919 16.8967 -28.0794 9.99964 -1.72347 -2.20965
lfemur -20.259 1.5008 -19.7974
ltibia 34.0273 0 0
lfoot -35.8348 4.18366 0
ltoes 36.1843 0 0
rfemur -16.9697 6.06532 19.5122
rtibia 30.763 0 0
rfoot -27.5167 -18.0834 0
rtoes 13.1424 0 0
lowerback -5.31424 2.47166 -0.940784
upperback -1.8846 3.32851 0.751293
thorax 0.925932 1.6751 1.49143
lowerneck -9.58603 -1.64121 2.70502
upperneck -2.73448 -2.45322 0.690599
head 0.717178 -1.23373 -0.320151
lclavicle 2.633e-14 9.83955e-15 0
lhumerus -41.5111 -12.5324 96.7973
lradius 38.7662 0 0
lwrist 5.6127 0 0
lhand -11.5914 4.11802 0
lfingers 7.12502 0 0
lthumb 14.4507 33.5946 0
rclavicle 2.633e-14 9.83955e-15 0
rhumerus -40.6405 -5.01787 -88.8733
rradius 39.2932 0 0
rwrist 10.746 0 0
rhand -26.7865 -20.2182 0
rfingers 7.12502 0 0
rthumb -0.213865 -50.1979 0
35
root 5.96887 16.8971 -28.0803 10.0358 -1.68935 -2.16874
lfemur -20.2903 1.47252 -19.799
ltibia 34.0051 0 0
lfoot -35.7259 4.1874 0
ltoes 36.0138 0 0
rfemur -16.9619 6.08285 19.5041
rtibia 30.6957 0 0
rfoot -27.4512 -18.1855 0
rtoes 12.6862 0 0
lowerback -5.39666 2.43722 -0.794556
upperback -1.85785 3.27715 0.633365
thorax 1.01725 1.64729 1.29135
lowerneck -9.57219 -1.61925 2.75235
upperneck -2.78198 -2.42855 0.791825
head 0.700536 -1.22067 -0.295219
lclavicle 2.12769e-14 9.19691e-15 0
lhumerus -41.4928 -12.6394 96.7199
lradius 39.0596 0 0
lwrist 5.80578 0 0
lhand -11.6406 3.98522 0
lfingers 7.12502 0 0
lthumb 14.4034 33.4652 0
rclavicle 2.12769e-14 9.19691e-15 0
rhumerus -40.5606 -5.01649 -89.0502
rradius 39.2326 0 0
rwrist 10.7613 0 0
rhand -26.7695 -20.2513 0
rfingers 7.12502 0 0
rthumb -0.197469 -50.2309 0
36
root 5.95903 16.8974 -28.0812 10.0703 -1.65684 -2.12976
lfemur -20.3201 1.44558 -19.8005
ltibia 33.9839 0 0
lfoot -35.6221 4.19097 0
ltoes 35.8514 0 0
rfemur -16.9545 6.09956 19.4963
rtibia 30.6315 0 0
rfoot -27.3887 -18.2828 0
rtoes 12.2514 0 0
lowerback -5.4752 2.4044 -0.655216
upperback -1.83235 3.22822 0.520992
thorax 1.10428 1.62078 1.10068
lowerneck -9.559 -1.59832 2.79745
upperneck -2.82725 -2.40503 0.888284
head 0.684677 -1.20822 -0.27146
lclavicle 1.64619e-14 8.58455e-15 0
lhumerus -41.4753 -12.7413 96.6463
lradius 39.3391 0 0
lwrist 5.98977 0 0
lhand -11.6874 3.85866 0
lfingers 7.12502 0 0
lthumb 14.3583 33.3418 0
rclavicle 1.64619e-14 8.58455e-15 0
rhumerus -40.4845 -5.01518 -89.2188
rradius 39.1749 0 0
rwrist 10.7759 0 0
rhand -26.7533 -20.2828 0
rfingers 7.12502 0 0
rthumb -0.181845 -50.2624 0
37
root 5.94987 16.8977 -28.0821 10.1024 -1.62659 -2.09347
lfemur -20.3479 1.4205 -19.8019
ltibia 33.9641 0 0
lfoot -35.5255 4.1943 0
ltoes 35.7002 0 0
rfemur -16.9476 6.11512 19.4891
rtibia 30.5718 0 0
rfoot -27.3306 -18.3733 0
rtoes 11.8468 0 0
lowerback -5.54831 2.37386 -0.525517
upperback -1.80862 3.18267 0.416393
thorax 1.18528 1.59611 0.923205
lowerneck -9.54672 -1.57884 2.83943
upperneck -2.86938 -2.38314 0.978069
head 0.669915 -1.19664 -0.249346
lclavicle 1.198e-14 8.01455e-15 0
lhumerus -41.4591 -12.8361 96.5777
lradius 39.5993 0 0
lwrist 6.16103 0 0
lhand -11.7309 3.74087 0
lfingers 7.12502 0 0
lthumb 14.3163 33.2271 0
rclavicle 1.198e-14 8.01455e-15 0
rhumerus -40.4137 -5.01395 -89.3757
rradius 39.1212 0 0
rwrist 10.7895 0 0
rhand -26.7382 -20.3121 0
rfingers 7.12502 0 0
rthumb -0.167302 -50.2918 0
38
root 5.94159 16.898 -28.0828 10.1314 -1.59922 -2.06065
lfemur -20.3729 1.39781 -19.8032
ltibia 33.9463 0 0
lfoot -35.4381 4.1973 0
ltoes 35.5634 0 0
rfemur -16.9414 6.12918 19.4825
rtibia 30.5178 0 0
rfoot -27.278 -18.4552 0
rtoes 11.4808 0 0
lowerback -5.61443 2.34623 -0.408214
upperback -1.78716 3.14147 0.321792
thorax 1.25853 1.5738 0.762694
lowerneck -9.53561 -1.56122 2.87739
upperneck -2.90748 -2.36335 1.05927
head 0.656564 -1.18616 -0.229345
lclavicle 7.92644e-15 7.49903e-15 0
lhumerus -41.4444 -12.9219 96.5156
lradius 39.8346 0 0
lwrist 6.31592 0 0
lhand -11.7703 3.63433 0
lfingers 7.12502 0 0
lthumb 14.2783 33.1233 0
rclavicle 7.92644e-15 7.49903e-15 0
rhumerus -40.3496 -5.01284 -89.5176
rradius 39.0726 0 0
rwrist 10.8018 0 0
rhand -26.7246 -20.3386 0
rfingers 7.12502 0 0
rthumb -0.154148 -50.3183 0
39
root 5.93438 16.8982 -28.0835 10.1566 -1.57539 -2.03207
lfemur -20.3948 1.37806 -19.8043
ltibia 33.9307 0 0
lfoot -35.3621 4.19992 0
ltoes 35.4443 0 0
rfemur -16.936 6.14144 19.4769
rtibia 30.4708 0 0
rfoot -27.2322 -18.5265 0
rtoes 11.1621 0 0
lowerback -5.67201 2.32217 -0.306061
upperback -1.76847 3.10559 0.23941
thorax 1.32233 1.55437 0.622914
lowerneck -9.52594 -1.54588 2.91046
upperneck -2.94067 -2.34611 1.12999
head 0.644938 -1.17704 -0.211927
lclavicle 4.39645e-15 7.0501e-15 0
lhumerus -41.4316 -12.9967 96.4616
lradius 40.0395 0 0
lwrist 6.45081 0 0
lhand -11.8046 3.54155 0
lfingers 7.12502 0 0
lthumb 14.2453 33.0329 0
rclavicle 4.39645e-15 7.0501e-15 0
rhumerus -40.2938 -5.01188 -89.6411
rradius 39.0303 0 0
rwrist 10.8125 0 0
rhand -26.7128 -20.3617 0
rfingers 7.12502 0 0
rthumb -0.142694 -50.3414 0
40
root 5.92843 16.8984 -28.084 10.1775 -1.55573 -2.0085
lfemur -20.4128 1.36177 -19.8052
ltibia 33.9179 0 0
lfoot -35.2993 4.20207 0
ltoes 35.3461 0 0
rfemur -16.9315 6.15154 19.4722
rtibia 30.432 0 0
rfoot -27.1945 -18.5853 0
rtoes 10.8992 0 0
lowerback -5.71949 2.30233 -0.221814
upperback -1.75306 3.07601 0.171467
thorax 1.37494 1.53834 0.507635
lowerneck -9.51797 -1.53323 2.93772
upperneck -2.96804 -2.33189 1.18831
head 0.635349 -1.16952 -0.197562
lclavicle 1.4852e-15 6.67986e-15 0
lhumerus -41.421 -13.0583 96.4171
lradius 40.2086 0 0
lwrist 6.56205 0 0
lhand -11.8329 3.46504 0
lfingers 7.12502 0 0
lthumb 14.218 32.9583 0
rclavicle 1.4852e-15 6.67986e-15 0
rhumerus -40.2478 -5.01108 -89.743
rradius 38.9955 0 0
rwrist 10.8214 0 0
rhand -26.703 -20.3808 0
rfingers 7.12502 0 0
rthumb -0.133248 -50.3605 0
41
root 5.92394 16.8986 -28.0844 10.1932 -1.5409 -1.99071
lfemur -20.4264 1.34948 -19.8059
ltibia 33.9082 0 0
lfoot -35.252 4.2037 0
ltoes 35.272 0 0
rfemur -16.9282 6.15916 19.4686
rtibia 30.4027 0 0
rfoot -27.166 -18.6297 0
rtoes 10.7008 0 0
lowerback -5.75533 2.28735 -0.158227
upperback -1.74142 3.05368 0.120186
thorax 1.41466 1.52625 0.420626
lowerneck -9.51195 -1.52368 2.95831
upperneck -2.98869 -2.32116 1.23233
head 0.628112 -1.16384 -0.18672
lclavicle -7.12117e-16 6.40041e-15 0
lhumerus -41.4131 -13.1048 96.3834
lradius 40.3361 0 0
lwrist 6.64601 0 0
lhand -11.8543 3.40728 0
lfingers 7.12502 0 0
lthumb 14.1974 32.902 0
rclavicle -7.12117e-16 6.40041e-15 0
rhumerus -40.2131 -5.01048 -89.82
rradius 38.9691 0 0
rwrist 10.828 0 0
rhand -26.6956 -20.3952 0
rfingers 7.12502 0 0
rthumb -0.126118 -50.3748 0
